<svg xmlns="http://www.w3.org/2000/svg" viewBox="0 0 1440 800" preserveAspectRatio="xMidYMid slice">
  <defs>
    <filter id="soft" x="-20%" y="-20%" width="140%" height="140%">
      <feGaussianBlur stdDeviation="14" />
    </filter>
  </defs>
  <rect width="1440" height="800" fill="#fbf9f3" />
  <g fill="none" stroke-linecap="round" filter="url(#soft)">
    <path d="M-120,90 C 320,10 520,250 800,210 S 1280,70 1580,170"
          stroke="#e4dac9" stroke-width="70" opacity="0.2" />
    <path d="M-120,250 C 300,180 560,380 880,320 S 1320,200 1580,300"
          stroke="#ede4d6" stroke-width="95" opacity="0.24" />
    <path d="M-120,470 C 360,400 640,560 980,500 S 1340,430 1580,520"
          stroke="#e0d4c0" stroke-width="80" opacity="0.18" />
    <path d="M-120,650 C 300,580 720,760 1040,700 S 1380,640 1580,720"
          stroke="#e9dfce" stroke-width="110" opacity="0.22" />
    <path d="M-120,360 C 420,300 700,470 1060,400 S 1380,330 1580,410"
          stroke="#e6dccb" stroke-width="55" opacity="0.16" />
  </g>
</svg>
